<?xml version="1.0" encoding="UTF-8"?>
<svg version="1.1" xmlns="http://www.w3.org/2000/svg" width="181" height="45">
<path d="M0 0 C1.0209375 1.051875 1.0209375 1.051875 2.0625 2.125 C2.701875 2.74375 3.34125 3.3625 4 4 C7.01349195 3.6644218 7.01349195 3.6644218 10 3 C12.74954328 3.96605575 13.69007757 4.38015514 15 7 C15.54109435 11.59930201 15.16746318 14.23017829 12.5 17.9375 C11.675 18.948125 10.85 19.95875 10 21 C10.825 21.845625 11.65 22.69125 12.5 23.5625 C14.7117134 26.21404277 15.00746552 27.0550582 15.5 30.6875 C15 34 15 34 13.8125 35.875 C11.50489358 37.30730743 9.70107867 37.73648013 7 38 C6.34 37.7525 5.68 37.505 5 37.25 C4.34 37.1675 3.68 37.085 3 37 C2.21625 37.825 1.4325 38.65 0.625 39.5 C-2 42 -2 42 -5.125 42 C-8.07604985 40.97354788 -9.15173667 40.44447731 -11 38 C-11.29296875 35.51953125 -11.29296875 35.51953125 -11.1875 32.8125 C-11.16042969 31.91144531 -11.13335937 31.01039062 -11.10546875 30.08203125 C-11.07066406 29.39496094 -11.03585937 28.70789063 -11 28 C-11.59167969 28.04640625 -12.18335938 28.0928125 -12.79296875 28.140625 C-16.84074034 28.32551506 -19.39405681 28.30915469 -23.0625 26.4375 C-25 24 -25 24 -25.625 20.5 C-25 17 -25 17 -23.0625 14.5625 C-18.94900079 12.46377591 -15.52819552 12.64484741 -11 13 C-11.04640625 12.32453125 -11.0928125 11.6490625 -11.140625 10.953125 C-11.43233895 3.743623 -11.43233895 3.743623 -9.4375 0.3125 C-5.88641759 -1.5996213 -3.82181259 -1.09194645 0 0 Z " fill="#02B9AB" transform="translate(27,2)"/>
<path d="M0 0 C1.11375 0.2475 1.11375 0.2475 2.25 0.5 C5.19006578 1.11925696 5.19006578 1.11925696 9 1 C9.33 1.66 9.66 2.32 10 3 C10.78375 3 11.5675 3 12.375 3 C38 3 38 3 41.5 3.1875 C43.2325 3.0946875 43.2325 3.0946875 45 3 C45.66 2.01 46.32 1.02 47 0 C47.99 0 48.98 0 50 0 C50.495 1.485 50.495 1.485 51 3 C56.61 3 62.22 3 68 3 C68.95904856 6.83619425 68.91892116 8.32431536 68 12 C64.38709822 12.83425187 61.07933749 13.10842154 57.375 13.0625 C56.43398437 13.05347656 55.49296875 13.04445313 54.5234375 13.03515625 C53.69070312 13.02355469 52.85796875 13.01195312 52 13 C51.01 13 50.02 13 49 13 C45.82956733 13 43.94336703 12.75957859 41 12 C37.99628569 11.91610033 37.99628569 11.91610033 35.0625 12.5 C31.33626471 13.10836494 28.6019832 13.20066107 25 12 C21.10540926 11.78918149 21.10540926 11.78918149 18 13 C17.34 12.67 16.68 12.34 16 12 C14.329375 12.2784375 14.329375 12.2784375 12.625 12.5625 C8.80218694 13.02387399 8.1923208 12.65120041 5 11 C2.76529595 11.78309467 2.76529595 11.78309467 1 13 C0 12 0 12 -0.09765625 9.27734375 C-0.08605469 8.17519531 -0.07445312 7.07304687 -0.0625 5.9375 C-0.05347656 4.83277344 -0.04445312 3.72804688 -0.03515625 2.58984375 C-0.02355469 1.73519531 -0.01195312 0.88054688 0 0 Z M7 5 C8 8 8 8 8 8 Z " fill="#5FBFCF" transform="translate(49,8)"/>
<path d="M0 0 C1.8125 1.125 1.8125 1.125 3 3 C3.7092283 7.60998397 3.15411364 10.22023289 0.5 13.9375 C-0.325 14.948125 -1.15 15.95875 -2 17 C-1.175 17.845625 -0.35 18.69125 0.5 19.5625 C2.7117134 22.21404277 3.00746552 23.0550582 3.5 26.6875 C3 30 3 30 1.8125 31.875 C-0.52105067 33.32341076 -2.25767499 33.79934207 -5 34 C-8.29293629 32.72234072 -10.08731003 31.0156544 -12.3125 28.3125 C-15.68032676 24.32505143 -19.26021316 20.63748264 -23 17 C-19.34958384 12.63730751 -15.61135582 8.52626192 -11.515625 4.578125 C-9.78603688 2.87001498 -9.78603688 2.87001498 -8 0 C-4.65044556 -1.11651815 -3.32740404 -0.99822121 0 0 Z " fill="#CCDB29" transform="translate(39,6)"/>
<path d="M0 0 C5.16974771 0.51933539 10.37673296 0.32396981 15.56640625 0.2578125 C16.22640625 0.2578125 16.88640625 0.2578125 17.56640625 0.2578125 C19.60873033 0.09940509 21.65032669 -0.0684786 23.69140625 -0.2421875 C24.78710938 -0.335 25.8828125 -0.4278125 27.01171875 -0.5234375 C27.85476562 -0.595625 28.6978125 -0.6678125 29.56640625 -0.7421875 C29.36015625 0.1446875 29.15390625 1.0315625 28.94140625 1.9453125 C28.53517417 5.53369584 29.12812886 7.03541239 30.56640625 10.2578125 C13.56640625 10.2578125 13.56640625 10.2578125 11.87890625 9.6953125 C8.63772735 9.08211649 5.80163332 9.72841171 2.56640625 10.2578125 C-2.10026042 10.2578125 -6.76692708 10.2578125 -11.43359375 10.2578125 C-11.76359375 8.9378125 -12.09359375 7.6178125 -12.43359375 6.2578125 C-13.42359375 6.2578125 -14.41359375 6.2578125 -15.43359375 6.2578125 C-15.43359375 7.5778125 -15.43359375 8.8978125 -15.43359375 10.2578125 C-16.75359375 10.2578125 -18.07359375 10.2578125 -19.43359375 10.2578125 C-19.43359375 6.9578125 -19.43359375 3.6578125 -19.43359375 0.2578125 C-18.16902344 0.27521484 -18.16902344 0.27521484 -16.87890625 0.29296875 C-15.78320312 0.30199219 -14.6875 0.31101562 -13.55859375 0.3203125 C-11.92277344 0.33771484 -11.92277344 0.33771484 -10.25390625 0.35546875 C-6.43207716 0.22313395 -3.99616741 -0.5740351 0 0 Z M-5.43359375 2.2578125 C-5.76359375 3.2478125 -6.09359375 4.2378125 -6.43359375 5.2578125 C-5.44359375 5.2578125 -4.45359375 5.2578125 -3.43359375 5.2578125 C-4.09359375 4.2678125 -4.75359375 3.2778125 -5.43359375 2.2578125 Z M1.56640625 2.2578125 C1.56640625 5.2578125 1.56640625 5.2578125 1.56640625 5.2578125 Z M5.56640625 3.2578125 C5.89640625 4.5778125 6.22640625 5.8978125 6.56640625 7.2578125 C6.89640625 5.9378125 7.22640625 4.6178125 7.56640625 3.2578125 C6.90640625 3.2578125 6.24640625 3.2578125 5.56640625 3.2578125 Z " fill="#8E8C8C" transform="translate(94.43359375,25.7421875)"/>
<path d="M0 0 C0.99 0 1.98 0 3 0 C3 0.99 3 1.98 3 3 C9.93 3 16.86 3 24 3 C24 5.97 24 8.94 24 12 C23 13 23 13 19.9375 13.0625 C18.968125 13.041875 17.99875 13.02125 17 13 C17 12.34 17 11.68 17 11 C3.14 11 -10.72 11 -25 11 C-25 7.7 -25 4.4 -25 1 C-22.69 1 -20.38 1 -18 1 C-17.67 1.66 -17.34 2.32 -17 3 C-11.39 3 -5.78 3 0 3 C0 2.01 0 1.02 0 0 Z M20 6 C21 8 21 8 21 8 Z " fill="#8E8C8C" transform="translate(152,25)"/>
<path d="M0 0 C2.31 0.33 4.62 0.66 7 1 C7 1.66 7 2.32 7 3 C7.66 3 8.32 3 9 3 C9 5.31 9 7.62 9 10 C2.05127522 12.31624159 -8.35009017 11.87563668 -15 9 C-15 6.36 -15 3.72 -15 1 C-14.01 1 -13.02 1 -12 1 C-12 2.98 -12 4.96 -12 7 C-11.34 7 -10.68 7 -10 7 C-10 5.02 -10 3.04 -10 1 C-9.01 1 -8.02 1 -7 1 C-7 1.66 -7 2.32 -7 3 C-5.02 3 -3.04 3 -1 3 C-0.67 2.01 -0.34 1.02 0 0 Z " fill="#8E8C8C" transform="translate(64,25)"/>
<path d="M0 0 C0.66 0.66 1.32 1.32 2 2 C1.01 2 0.02 2 -1 2 C-0.67 1.34 -0.34 0.68 0 0 Z " fill="#000000" transform="translate(132,20)"/>
</svg>
